<mxfile host="app.diagrams.net" modified="2023-12-18T06:13:02.774Z" agent="Mozilla/5.0 (Windows NT 10.0; Win64; x64; rv:120.0) Gecko/20100101 Firefox/120.0" version="22.1.11" etag="pMzNwTETo8G5YY2A5sw-" type="github">
  <diagram name="第 1 页" id="4MuG9dcFZqFzsOZIaR-n">
    <mxGraphModel>
      <root>
        <mxCell id="0" />
        <mxCell id="1" parent="0" />
      </root>
    </mxGraphModel>
  </diagram>
</mxfile>
